<svg id="Layer_1" data-name="Layer 1"
    xmlns="http://www.w3.org/2000/svg" viewBox="0 0 585.25 200.89">
    <defs>
        <style>.cls-1{fill:#262626;}.cls-2{fill:#1890ff;}</style>
    </defs>
    <path class="cls-1" d="M508.55,478.75H490.07l-3.52,8.53h-9.44l17.74-39.79h9.09l17.79,39.79h-9.66Zm-2.9-7-6.31-15.23L493,471.76Z" transform="translate(-307.38 -399.43)"/>
    <path class="cls-1" d="M538.91,469.77V447.49h9.21v21.94c0,7.56,3.29,10.69,8.86,10.69s8.87-3.13,8.87-10.69V447.49h9.09v22.28c0,11.71-6.7,18.19-18,18.19S538.91,481.48,538.91,469.77Z" transform="translate(-307.38 -399.43)"/>
    <path class="cls-1" d="M595.76,467.39c0-12,9.21-20.58,21.6-20.58,6.87,0,12.62,2.5,16.37,7.05l-5.91,5.45a12.82,12.82,0,0,0-10-4.66c-7.44,0-12.73,5.23-12.73,12.74s5.29,12.73,12.73,12.73a12.69,12.69,0,0,0,10-4.72l5.91,5.46c-3.75,4.6-9.5,7.1-16.43,7.1C605,488,595.76,479.38,595.76,467.39Z" transform="translate(-307.38 -399.43)"/>
    <path class="cls-1" d="M662,455H649.26v-7.5h34.67V455H671.2v32.29H662Z" transform="translate(-307.38 -399.43)"/>
    <path class="cls-1" d="M703.09,447.49h9.21v39.79h-9.21Z" transform="translate(-307.38 -399.43)"/>
    <path class="cls-1" d="M733.45,467.39c0-11.83,9.21-20.58,21.77-20.58S777,455.51,777,467.39,767.72,488,755.22,488,733.45,479.21,733.45,467.39Zm34.22,0c0-7.56-5.35-12.74-12.45-12.74s-12.45,5.18-12.45,12.74,5.34,12.73,12.45,12.73S767.67,475,767.67,467.39Z" transform="translate(-307.38 -399.43)"/>
    <path class="cls-1" d="M834.64,447.49v39.79h-7.56l-19.84-24.16v24.16h-9.1V447.49h7.62l19.78,24.16V447.49Z" transform="translate(-307.38 -399.43)"/>
    <path class="cls-2" d="M490.58,513H477.85v-7.51h34.67V513H499.79v32.28h-9.21Z" transform="translate(-307.38 -399.43)"/>
    <path class="cls-2" d="M562.5,537.85v7.39H531.69V505.45h30.07v7.39H540.84v8.64h18.47v7.17H540.84v9.2Z" transform="translate(-307.38 -399.43)"/>
    <path class="cls-2" d="M620.25,545.24l0-23.87L608.49,541h-4.15l-11.65-19.16v23.36h-8.64V505.45h7.61l14.9,24.73,14.66-24.73h7.56l.11,39.79Z" transform="translate(-307.38 -399.43)"/>
    <path class="cls-2" d="M687.05,519.89c0,8.87-6.65,14.38-17.28,14.38h-8v11h-9.21V505.45h17.22C680.4,505.45,687.05,511,687.05,519.89Zm-9.32,0c0-4.38-2.84-6.93-8.47-6.93h-7.5v13.81h7.5C674.89,526.77,677.73,524.21,677.73,519.89Z" transform="translate(-307.38 -399.43)"/>
    <path class="cls-2" d="M707.81,505.45H717v32.29h20v7.5H707.81Z" transform="translate(-307.38 -399.43)"/>
    <path class="cls-2" d="M782.9,536.72H764.43l-3.52,8.52h-9.44l17.73-39.79h9.1l17.79,39.79h-9.66Zm-2.9-7-6.3-15.23-6.31,15.23Z" transform="translate(-307.38 -399.43)"/>
    <path class="cls-2" d="M820.71,513H808v-7.51h34.67V513H829.92v32.28h-9.21Z" transform="translate(-307.38 -399.43)"/>
    <path class="cls-2" d="M892.62,537.85v7.39h-30.8V505.45h30.07v7.39H871v8.64h18.47v7.17H871v9.2Z" transform="translate(-307.38 -399.43)"/>
    <rect class="cls-1" x="307.99" y="545.22" width="49.2" height="17.78" rx="5.7" transform="translate(-620.81 172.12) rotate(-60.57)"/>
    <path class="cls-1" d="M377.06,545.75l-27.55,49.49a8.92,8.92,0,0,1-12.11,3.38h0A8.9,8.9,0,0,1,334,586.51L361.58,537a8.92,8.92,0,0,1,12.11-3.37h0A8.91,8.91,0,0,1,377.06,545.75Z" transform="translate(-307.38 -399.43)"/>
    <rect class="cls-1" x="353.47" y="567.71" width="49.2" height="17.78" rx="5.7" transform="translate(-617.26 223.17) rotate(-60.57)"/>
    <path class="cls-2" d="M451,399.43s-60.81,10.89-94.47,79.37c0,0-36.52,6-49.15,37.95,0,0,34.22-9.29,69.18,9.56l21.13-34.58c.37-.62.38-.62-.26-1q-3.12-1.91-6.23-3.82a.64.64,0,0,0-.9.05,3.1,3.1,0,0,1-3.9,0,3.05,3.05,0,0,1-.77-3.87c.8-1.44,1.68-2.84,2.55-4.25l7.93-12.95a3,3,0,0,1,2.39-1.55,3.07,3.07,0,0,1,3.33,3.75.61.61,0,0,0,.33.78q10.11,6.17,20.21,12.36a.69.69,0,0,0,.94-.07,3,3,0,0,1,3.89,0,3,3,0,0,1,.84,3.71c-.4.81-.91,1.58-1.38,2.36l-9,14.76a3.16,3.16,0,0,1-2,1.66,3.07,3.07,0,0,1-3.87-3.55.73.73,0,0,0-.41-.91q-3.13-1.87-6.23-3.82c-.47-.29-.67-.24-.95.23q-10.53,17.28-21.09,34.54C399,540.4,414.64,557,426.83,583.43c0,0,16.11-23.16,6.72-59.83C433.55,523.6,476.54,458.45,451,399.43Z" transform="translate(-307.38 -399.43)"/>
</svg>