<svg id="quikk_software_logo" data-name="QUIKK Software Logo"
    xmlns="http://www.w3.org/2000/svg" viewBox="0 0 455.17 131.84" title="QUIKK Software Logo">
    <defs>
        <style>.primary{fill:#21242D;}.accent{fill:#ff584f;}</style>
    </defs>
    <path class="primary" d="M588.7,546a5.94,5.94,0,0,0-2.54-2,9.32,9.32,0,0,0-3.61-.76,7.72,7.72,0,0,0-4.16,1,3.13,3.13,0,0,0-1.6,2.76,2.49,2.49,0,0,0,1.55,2.38,15.83,15.83,0,0,0,4.49,1.17,34.31,34.31,0,0,1,3.77.75,14.32,14.32,0,0,1,3.1,1.26,5.73,5.73,0,0,1,2.32,2.28,6.88,6.88,0,0,1,.8,3.43,6.5,6.5,0,0,1-1.54,4.44,8.37,8.37,0,0,1-3.77,2.51,15.88,15.88,0,0,1-5,.73q-7.63,0-10.7-5.65l3-2q2.41,4.1,7.75,4.09a12.09,12.09,0,0,0,3-.35,5.07,5.07,0,0,0,2.33-1.34,3.29,3.29,0,0,0,1-2.43,3,3,0,0,0-1.69-2.79,13.66,13.66,0,0,0-4.67-1.3,27.94,27.94,0,0,1-2.93-.5,17.73,17.73,0,0,1-2.58-.82,7.15,7.15,0,0,1-2.19-1.28,5.62,5.62,0,0,1-1.38-1.93,6.39,6.39,0,0,1-.56-2.72,6.22,6.22,0,0,1,3.13-5.51,11.68,11.68,0,0,1,3.06-1.23,14.15,14.15,0,0,1,3.41-.41q6.66,0,9.28,4.2Z" transform="translate(-372.41 -434.08)"/>
    <path class="primary" d="M625,543.82a13.52,13.52,0,0,1,3.3,9.19,14.49,14.49,0,0,1-.8,4.86,13,13,0,0,1-2.31,4.1,10.3,10.3,0,0,1-4,2.86,14.33,14.33,0,0,1-5.62,1A14,14,0,0,1,610,564.8a10.51,10.51,0,0,1-4-2.9,13.13,13.13,0,0,1-2.31-4.07,14.07,14.07,0,0,1-.8-4.78,12.84,12.84,0,0,1,3.59-9.37,12.31,12.31,0,0,1,9.21-3.68Q621.72,540,625,543.82Zm-17.66,12.55a9.66,9.66,0,0,0,1.55,2.92,7.26,7.26,0,0,0,2.76,2.13,9.28,9.28,0,0,0,3.92.8q4.38,0,6.58-2.61a9.78,9.78,0,0,0,2.21-6.53,11.43,11.43,0,0,0-.87-4.48,8.26,8.26,0,0,0-2.92-3.5,8.47,8.47,0,0,0-4.92-1.47,8.24,8.24,0,0,0-6.53,2.63,9.92,9.92,0,0,0-2.33,6.82A11.63,11.63,0,0,0,607.38,556.37Z" transform="translate(-372.41 -434.08)"/>
    <path class="primary" d="M640.18,565.35V540.5h17.6v3.87H644.16V552h13v3.69h-13v9.71Z" transform="translate(-372.41 -434.08)"/>
    <path class="primary" d="M675.2,544.05H667v-3.59h20.33v3.59h-8.14v21.3h-4Z" transform="translate(-372.41 -434.08)"/>
    <path class="primary" d="M723.73,565.38h-3.52l-3.3-8.78-2.74-8.35-2.74,8.39-3.27,8.74h-3.48l-9-24.92h4.44l6.33,19.17,6.43-19.17h2.56L722,559.63l6.19-19.17h4.44Z" transform="translate(-372.41 -434.08)"/>
    <path class="primary" d="M759.29,560.12H745.81l-2.34,5.23h-4.23l11.16-24.89h4.34l11.16,24.89h-4.23Zm-6.72-15.46-5.26,11.84h10.52Z" transform="translate(-372.41 -434.08)"/>
    <path class="primary" d="M797.93,565.35h-4.65l-7.58-8.6h-5.26v8.6h-4V540.43h5.8c2.58,0,4.51,0,5.79,0a8.56,8.56,0,0,1,6.45,2.4,7.94,7.94,0,0,1,2.33,5.74,8.17,8.17,0,0,1-1.65,5.11,7.44,7.44,0,0,1-5.1,2.64l7.43,8.29Zm-17.49-21.26v9H788a4.67,4.67,0,0,0,3.55-1.28,4.41,4.41,0,0,0,1.21-3.16,4.67,4.67,0,0,0-1.21-3.22,4.43,4.43,0,0,0-3.52-1.37Z" transform="translate(-372.41 -434.08)"/>
    <path class="primary" d="M827.59,565.35H809.21V540.46h18.27v3.88H813.19v6.72h13.72v3.69H813.19v6.69h14.4Z" transform="translate(-372.41 -434.08)"/>
    <rect class="accent" x="149.36" y="117.55" width="6.15" height="6.15"/>
    <rect class="accent" x="165.94" y="117.55" width="6.15" height="6.15"/>
    <rect class="accent" x="182.52" y="117.55" width="6.15" height="6.15"/>
    <path class="primary" d="M489.93,489.16V435.72H512v52.62c0,18.14,7.91,25.63,21.27,25.63s21.27-7.49,21.27-25.63V435.72h21.81v53.44c0,28.09-16.09,43.63-43.22,43.63S489.93,517.25,489.93,489.16Z" transform="translate(-372.41 -434.08)"/>
    <path class="primary" d="M595.46,435.72h22.08v95.43H595.46Z" transform="translate(-372.41 -434.08)"/>
    <path class="primary" d="M672.21,493.66,659.4,507v24.13H637.45V435.72H659.4V480.3l42.26-44.58H726.2l-39.54,42.53,41.86,52.9H702.75Z" transform="translate(-372.41 -434.08)"/>
    <path class="primary" d="M770.37,493.66,757.56,507v24.13H735.61V435.72h21.95V480.3l42.26-44.58h24.54l-39.54,42.53,41.86,52.9H800.91Z" transform="translate(-372.41 -434.08)"/>
    <polygon class="accent" points="55.7 57.44 78.48 117.33 84.47 86.21 115.39 80.41 55.7 57.44"/>
    <path class="primary" d="M432.75,513a32.49,32.49,0,0,1-8.12,1c-17,0-29.86-12.4-29.86-30.53s12.82-30.54,29.86-30.54,29.86,12.4,29.86,30.54a33.16,33.16,0,0,1-2.79,13.64l20.4,7.84a49.56,49.56,0,0,0,4.75-21.48c0-28.5-22.23-49.36-52.22-49.36s-52.22,21-52.22,49.36c0,23.41,15,41.82,37.28,47.55,5.38,1.34,17.23,3.42,29.93,0Z" transform="translate(-372.41 -434.08)"/>
    <polyline class="primary" points="79.3 63.01 112.71 76 93.5 55.05"/>
    <polyline class="primary" points="60.26 78.94 74.63 114.78 49 91.23"/>
</svg>